<?xml version="1.0" standalone="no"?>
<!DOCTYPE svg PUBLIC "-//W3C//DTD SVG 20010904//EN"
 "http://www.w3.org/TR/2001/REC-SVG-20010904/DTD/svg10.dtd">
<svg version="1.0" xmlns="http://www.w3.org/2000/svg"
 width="337.000000pt" height="342.000000pt" viewBox="0 0 337.000000 342.000000"
 preserveAspectRatio="xMidYMid meet">

<g transform="translate(0.000000,342.000000) scale(0.100000,-0.100000)"
fill="#000000" stroke="none">
<path d="M1454 3335 c-239 -36 -468 -121 -653 -242 -46 -30 -89 -60 -96 -66
-7 -7 -23 -19 -35 -27 -13 -8 -32 -24 -44 -35 -11 -11 -32 -29 -47 -40 -48
-36 -195 -209 -256 -300 -70 -106 -117 -196 -166 -320 -32 -82 -42 -116 -77
-270 -22 -94 -31 -250 -25 -409 3 -88 10 -167 15 -175 4 -9 10 -38 14 -66 16
-152 119 -395 244 -580 180 -267 444 -482 735 -599 366 -148 742 -163 1117
-44 177 56 420 186 530 284 14 12 52 46 85 75 33 29 69 64 80 79 11 14 31 37
45 51 77 80 150 194 229 354 56 112 117 280 126 343 2 15 11 78 20 140 19 126
16 407 -4 497 -6 28 -14 70 -17 95 -14 119 -135 399 -241 557 -115 172 -262
317 -448 441 -165 110 -375 196 -590 242 -131 28 -409 36 -541 15z m-596 -877
c17 -11 32 -24 32 -29 0 -13 -5 -12 -42 11 -21 13 -51 20 -81 20 -41 0 -53 -5
-79 -30 -25 -26 -29 -36 -24 -62 9 -45 19 -54 123 -104 76 -36 97 -51 110 -78
21 -45 11 -95 -27 -131 -26 -25 -40 -30 -95 -33 -56 -4 -70 -1 -110 22 -25 15
-45 34 -45 43 0 15 2 15 18 1 34 -31 82 -48 131 -48 67 0 115 39 115 93 0 49
-24 73 -120 117 -44 21 -90 50 -102 65 -30 38 -28 86 4 124 45 53 123 61 192
19z m734 6 c29 -15 43 -32 35 -41 -3 -3 -19 4 -35 16 -68 48 -178 15 -218 -66
-28 -56 -27 -193 2 -248 44 -85 142 -111 219 -60 39 27 57 27 35 0 -24 -29
-68 -45 -120 -45 -116 0 -180 83 -180 234 0 176 128 278 262 210z m-342 6 c0
-6 -43 -10 -109 -10 l-110 0 -3 -90 -3 -90 93 0 c55 0 92 -4 92 -10 0 -6 -36
-10 -89 -10 l-90 0 -3 -105 c-2 -80 0 -106 10 -110 8 -3 58 -5 113 -5 61 0 99
-4 99 -10 0 -7 -43 -10 -122 -8 l-123 3 -3 228 -2 227 125 0 c77 0 125 -4 125
-10z m682 0 c52 -15 78 -51 78 -111 0 -56 -33 -104 -80 -114 -17 -4 -30 -9
-30 -12 0 -3 27 -50 60 -104 32 -54 55 -101 50 -104 -10 -6 -57 62 -98 140
-36 68 -45 75 -95 75 l-46 0 -3 -107 c-2 -66 -7 -107 -13 -106 -6 2 -11 89
-13 228 l-2 225 77 0 c43 0 95 -5 115 -10z m428 0 c0 -6 -43 -10 -110 -10
l-110 0 0 -90 0 -90 90 0 c53 0 90 -4 90 -10 0 -6 -37 -10 -90 -10 l-90 0 0
-110 0 -111 105 2 c101 1 135 -4 103 -16 -8 -3 -63 -4 -124 -3 l-109 3 -3 228
-2 227 125 0 c77 0 125 -4 125 -10z m370 0 c0 -6 -32 -10 -75 -10 l-75 0 0
-214 c0 -133 -4 -217 -10 -221 -7 -4 -10 70 -10 214 l0 221 -76 0 c-47 0 -73
4 -69 10 4 6 68 10 161 10 96 0 154 -4 154 -10z m-2052 -1053 l2 -437 210 0
c203 0 210 -1 210 -20 0 -19 -7 -20 -235 -20 l-235 0 0 458 0 459 23 -2 22 -2
3 -436z m630 -23 c-3 -441 -3 -449 -23 -449 -20 0 -20 8 -23 452 -2 424 -1
452 15 456 10 2 21 1 26 -3 4 -3 6 -208 5 -456z m750 458 c6 -2 12 -13 12 -23
0 -18 -11 -19 -220 -19 l-220 0 0 -190 0 -190 185 0 c178 0 185 -1 185 -20 0
-19 -7 -20 -185 -20 l-185 0 0 -225 0 -225 -25 0 -25 0 0 454 c0 354 3 456 13
460 15 6 447 5 465 -2z m652 -19 l0 -23 -220 0 -220 0 0 -185 0 -185 185 0
c178 0 185 -1 185 -20 0 -19 -7 -20 -185 -20 l-185 0 0 -210 0 -210 230 0
c223 0 230 -1 230 -20 0 -19 -7 -20 -250 -20 l-250 0 0 454 0 455 23 4 c12 2
120 4 240 4 l217 0 0 -24z"/>
<path d="M1770 2359 l0 -101 86 3 c79 4 87 6 110 32 28 33 32 91 9 124 -19 28
-72 43 -147 43 l-58 0 0 -101z"/>
</g>
</svg>
