<?xml version="1.0" standalone="no"?>
<!DOCTYPE svg PUBLIC "-//W3C//DTD SVG 20010904//EN"
 "http://www.w3.org/TR/2001/REC-SVG-20010904/DTD/svg10.dtd">
<svg version="1.0" xmlns="http://www.w3.org/2000/svg"
 width="642.000000pt" height="605.000000pt" viewBox="0 0 642.000000 605.000000"
 preserveAspectRatio="xMidYMid meet">
<metadata>
Created by potrace 1.16, written by Peter Selinger 2001-2019
</metadata>
<g transform="translate(0.000000,605.000000) scale(0.100000,-0.100000)"
fill="#fff" stroke="none">
<path d="M1610 4630 c-440 -54 -756 -233 -900 -511 -109 -209 -106 -466 7
-658 47 -81 182 -219 291 -299 130 -96 519 -325 741 -436 143 -72 351 -199
433 -264 170 -136 280 -285 313 -423 19 -81 19 -234 0 -322 -29 -139 -121
-269 -250 -356 -155 -103 -350 -154 -590 -153 -498 1 -749 160 -853 538 -26
97 -26 104 -27 407 l0 309 -24 19 c-13 10 -34 19 -47 19 -19 0 -25 -8 -34 -39
-28 -104 -180 -733 -185 -767 -4 -22 0 -66 8 -101 59 -257 404 -469 861 -529
168 -22 514 -15 676 14 503 90 849 372 936 764 25 109 22 310 -5 413 -50 188
-152 338 -336 493 -140 118 -364 256 -710 437 -430 225 -549 299 -656 412
-115 121 -155 229 -147 399 3 81 8 100 41 166 70 143 203 245 378 289 118 30
424 38 556 15 172 -30 273 -75 359 -160 150 -150 199 -390 160 -782 -18 -181
-15 -213 24 -234 12 -6 35 -10 52 -8 l31 3 94 380 c107 429 110 464 60 568
-26 52 -114 148 -172 188 -110 74 -296 146 -479 185 -102 21 -154 26 -326 29
-113 2 -239 0 -280 -5z"/>
<path d="M3450 4539 c0 -49 20 -64 131 -99 121 -38 163 -71 186 -148 17 -53
18 -148 18 -1442 0 -1473 1 -1455 -47 -1515 -26 -33 -98 -69 -179 -90 -93 -24
-109 -37 -109 -88 l0 -42 837 3 c852 4 1199 -4 1432 -33 160 -20 217 -19 240
4 16 16 19 42 24 257 5 238 27 484 72 834 16 121 21 188 15 194 -16 16 -112
11 -148 -8 -17 -9 -39 -30 -48 -48 -9 -17 -34 -135 -55 -262 -68 -399 -112
-560 -174 -643 -34 -43 -125 -88 -221 -108 -141 -28 -269 -37 -669 -42 -452
-6 -459 -5 -484 54 -8 21 -11 396 -9 1483 3 1389 4 1457 22 1503 29 75 72 101
231 143 102 26 135 52 128 100 l-5 29 -594 0 -594 0 0 -36z"/>
</g>
</svg>
